<?xml version="1.0" encoding="UTF-8" standalone="no"?>
<svg
   xmlns:dc="http://purl.org/dc/elements/1.1/"
   xmlns:cc="http://creativecommons.org/ns#"
   xmlns:rdf="http://www.w3.org/1999/02/22-rdf-syntax-ns#"
   xmlns:svg="http://www.w3.org/2000/svg"
   xmlns="http://www.w3.org/2000/svg"
   xmlns:sodipodi="http://sodipodi.sourceforge.net/DTD/sodipodi-0.dtd"
   xmlns:inkscape="http://www.inkscape.org/namespaces/inkscape"
   width="96mm"
   height="96mm"
   viewBox="0 0 96 96"
   version="1.1"
   id="svg8"
   inkscape:version="1.0.1 (3bc2e813f5, 2020-09-07)"
   sodipodi:docname="logo.svg"
   inkscape:export-filename="F:\projects\fam\logo.png"
   inkscape:export-xdpi="1287"
   inkscape:export-ydpi="1287">
  <defs
     id="defs2" />
  <sodipodi:namedview
     id="base"
     pagecolor="#ffffff"
     bordercolor="#666666"
     borderopacity="1.0"
     inkscape:pageopacity="0.0"
     inkscape:pageshadow="2"
     inkscape:zoom="0.98994949"
     inkscape:cx="261.71375"
     inkscape:cy="288.28052"
     inkscape:document-units="mm"
     inkscape:current-layer="layer1"
     inkscape:document-rotation="0"
     showgrid="false"
     inkscape:snap-global="true"
     inkscape:window-width="1920"
     inkscape:window-height="1017"
     inkscape:window-x="-8"
     inkscape:window-y="-8"
     inkscape:window-maximized="1"
     inkscape:snap-bbox="true"
     inkscape:snap-page="true" />
  <metadata
     id="metadata5">
    <rdf:RDF>
      <cc:Work
         rdf:about="">
        <dc:format>image/svg+xml</dc:format>
        <dc:type
           rdf:resource="http://purl.org/dc/dcmitype/StillImage" />
        <dc:title />
      </cc:Work>
    </rdf:RDF>
  </metadata>
  <g
     inkscape:label="Capa 1"
     inkscape:groupmode="layer"
     id="layer1"
     transform="translate(-29.214353,-51.04255)">
    <g
       id="g897"
       transform="matrix(1.6302602,0,0,1.6302602,-18.412642,-32.170086)">
      <rect
         style="fill:#ffffff;stroke:none;stroke-width:0.3"
         id="rect877"
         width="58.886307"
         height="58.886307"
         x="29.214352"
         y="51.042549" />
      <path
         id="rect833-9-3-37"
         style="fill:#008000;stroke-width:0.0377953"
         d="m 241.54102,379.43164 v 35.55664 h 41.41601 v -35.55664 z"
         transform="scale(0.26458333)" />
      <rect
         style="fill:#aa0000;stroke-width:0.01"
         id="rect833"
         width="10.958051"
         height="10.958051"
         x="31.19556"
         y="53.023758" />
      <rect
         style="fill:#aa0000;stroke-width:0.01"
         id="rect833-9"
         width="10.958051"
         height="10.958051"
         x="31.19556"
         y="67.679039" />
      <rect
         style="fill:#aa0000;stroke-width:0.01"
         id="rect833-9-9"
         width="10.958051"
         height="10.958051"
         x="31.19556"
         y="82.334312" />
      <rect
         style="fill:#aa0000;stroke-width:0.01"
         id="rect833-9-2"
         width="10.958051"
         height="10.958051"
         x="31.19556"
         y="96.989594" />
      <rect
         style="fill:#000080;stroke-width:0.01"
         id="rect833-9-3"
         width="10.958051"
         height="10.958051"
         x="45.850842"
         y="53.023758" />
      <rect
         style="fill:#000080;stroke-width:0.01"
         id="rect833-9-3-5"
         width="10.958051"
         height="10.958051"
         x="45.761753"
         y="67.679039" />
      <rect
         style="fill:#000080;stroke-width:0.01"
         id="rect833-9-3-50"
         width="10.958051"
         height="10.958051"
         x="45.761753"
         y="82.334312" />
      <rect
         style="fill:#000080;stroke-width:0.01"
         id="rect833-9-3-0"
         width="10.958051"
         height="10.958051"
         x="45.761753"
         y="96.989594" />
      <rect
         style="fill:#00d400;stroke-width:0.01"
         id="rect833-9-3-3"
         width="10.958051"
         height="10.958051"
         x="60.506123"
         y="53.023758" />
      <path
         id="rect833-9-3-53"
         style="fill:#00d400;stroke-width:0.0377953"
         d="m 241.54102,268.65234 v 41.41602 h 41.41601 v -41.41602 z"
         transform="scale(0.26458333)" />
      <path
         id="rect833-9-3-31"
         style="fill:#008000;stroke-width:0.0377953"
         d="m 241.54102,324.04102 v 41.41796 h 41.41601 v -41.41796 z"
         transform="scale(0.26458333)" />
      <rect
         style="fill:#ffcc00;stroke-width:0.01"
         id="rect833-9-3-2"
         width="10.958051"
         height="10.958051"
         x="75.1614"
         y="53.023758" />
      <path
         id="rect833-9-3-1"
         style="fill:#ffcc00;stroke-width:0.0377953"
         d="m 296.93164,268.65234 v 41.41602 h 35.55664 v -41.41602 z"
         transform="scale(0.26458333)" />
      <path
         id="rect833-9-3-22"
         style="fill:#89a02c;stroke-width:0.0377953"
         d="m 296.93164,324.04102 v 41.41796 h 35.55664 v -41.41796 z"
         transform="scale(0.26458333)" />
      <path
         id="rect833-9-3-7"
         style="fill:#89a02c;stroke-width:0.0377953"
         d="m 296.93164,379.43164 v 35.55664 h 35.55664 v -35.55664 z"
         transform="scale(0.26458333)" />
      <path
         id="path1077"
         style="color:#000000;font-style:normal;font-variant:normal;font-weight:normal;font-stretch:normal;font-size:medium;line-height:normal;font-family:sans-serif;font-variant-ligatures:normal;font-variant-position:normal;font-variant-caps:normal;font-variant-numeric:normal;font-variant-alternates:normal;font-variant-east-asian:normal;font-feature-settings:normal;font-variation-settings:normal;text-indent:0;text-align:start;text-decoration:none;text-decoration-line:none;text-decoration-style:solid;text-decoration-color:#000000;letter-spacing:normal;word-spacing:normal;text-transform:none;writing-mode:lr-tb;direction:ltr;text-orientation:mixed;dominant-baseline:auto;baseline-shift:baseline;text-anchor:start;white-space:normal;shape-padding:0;shape-margin:0;inline-size:0;clip-rule:nonzero;display:inline;overflow:visible;visibility:visible;opacity:1;isolation:auto;mix-blend-mode:normal;color-interpolation:sRGB;color-interpolation-filters:linearRGB;solid-color:#000000;solid-opacity:1;vector-effect:none;fill:#000000;fill-opacity:1;fill-rule:nonzero;stroke:none;stroke-width:5.66929;stroke-linecap:butt;stroke-linejoin:miter;stroke-miterlimit:4;stroke-dasharray:11.3386, 5.66929;stroke-dashoffset:0;stroke-opacity:1;color-rendering:auto;image-rendering:auto;shape-rendering:auto;text-rendering:auto;enable-background:accumulate;stop-color:#000000;stop-opacity:1"
         d="m 251.36719,253.50195 v 5.66797 h 11.33984 v -5.66797 z m 0,0 c -3.67739,-0.004 -7.34618,0.8004 -10.6875,2.38477 l 2.42773,5.12305 c 2.55443,-1.21125 5.40943,-1.84275 8.25391,-1.83985 z m 17.00976,0 v 5.66797 h 11.33789 v -5.66797 z m 17.00782,0 v 5.66797 h 11.33789 v -5.66797 z m 17.00781,0 v 5.66797 h 11.33789 v -5.66797 z m 17.00781,0 v 5.66797 h 11.33789 v -5.66797 z m -84.08789,5.81641 c -3.28198,2.74072 -5.82122,6.31765 -7.32227,10.32812 l 5.30665,1.98438 c 1.14927,-3.07061 3.13391,-5.86012 5.65429,-7.96484 z m -8.78516,16.52148 c -0.0939,0.88304 -0.13806,1.7624 -0.13867,2.63477 v 8.99805 h 5.66797 v -8.99024 -0.008 c 7.1e-4,-0.68625 0.0404,-1.37005 0.11133,-2.03711 z m -0.13867,17.30274 v 11.33789 h 5.66797 v -11.33789 z m 0,17.00781 v 11.33789 h 5.66797 v -11.33789 z m 0,17.00781 v 11.33789 h 5.66797 V 327.1582 Z m 0,17.00782 v 11.33789 h 5.66797 v -11.33789 z m 0,17.00781 v 11.33789 h 5.66797 v -11.33789 z m 0,17.00781 v 11.33789 h 5.66797 v -11.33789 z m 0,17.00781 v 11.33789 h 5.66797 v -11.33789 z m 0,17.00782 v 2.79101 h 5.66797 v -2.79101 z"
         transform="scale(0.26458333)" />
    </g>
  </g>
</svg>
